# xmcd
# 
# Track frame offsets:
#     150
#     15045
#     48861
#     80540
#     94625
#     126609
#     136227
#     180517
# 
# Disc length: 2683
# 
# Revision: 0
# Processed by: cddbd v1.5.2PL0 Copyright (c) Steve Scherf et al.
# Submitted via: fre:ac v1.0.17
# 
DISCID=580a7908
DTITLE=Blood Stronghold - From Sepulchral Remains...
DYEAR=2014
DGENRE=Black Metal
TTITLE0=Eternal Wrath of Dark Gods
TTITLE1=Ancient Mystery of the Moon
TTITLE2=Stronghold of Forgotten Blood
TTITLE3=From Sepulchral Remains...
TTITLE4=Lost Upon the Nameless Wind (Sign of the Forgotten Dawn)
TTITLE5=To Distant Shores Aflame
TTITLE6=Fortress of Nightly Desolation
TTITLE7=The Spirit, Devoured by the Cold Soil of the Earth
EXTD=
EXTT0=
EXTT1=
EXTT2=
EXTT3=
EXTT4=
EXTT5=
EXTT6=
EXTT7=
PLAYORDER=
